<?xml version="1.0" encoding="UTF-8" standalone="no"?>
<!-- Created with Inkscape (http://www.inkscape.org/) -->

<svg
   version="1.1"
   id="svg2"
   width="1000"
   height="1000"
   viewBox="0 0 1000 1000"
   sodipodi:docname="Logotipo.ai"
   xmlns:inkscape="http://www.inkscape.org/namespaces/inkscape"
   xmlns:sodipodi="http://sodipodi.sourceforge.net/DTD/sodipodi-0.dtd"
   xmlns="http://www.w3.org/2000/svg"
   xmlns:svg="http://www.w3.org/2000/svg">
  <defs
     id="defs6">
    <clipPath
       clipPathUnits="userSpaceOnUse"
       id="clipPath16">
      <path
         d="M 0,750 H 750 V 0 H 0 Z"
         id="path14" />
    </clipPath>
    <clipPath
       clipPathUnits="userSpaceOnUse"
       id="clipPath100">
      <path
         d="M 0,750 H 750 V 0 H 0 Z"
         id="path98" />
    </clipPath>
  </defs>
  <sodipodi:namedview
     id="namedview4"
     pagecolor="#ffffff"
     bordercolor="#000000"
     borderopacity="0.25"
     inkscape:showpageshadow="2"
     inkscape:pageopacity="0.0"
     inkscape:pagecheckerboard="0"
     inkscape:deskcolor="#d1d1d1" />
  <g
     id="g8"
     inkscape:groupmode="layer"
     inkscape:label="Logotipo"
     transform="matrix(1.3333333,0,0,-1.3333333,0,1000)">
    <g
       id="g10">
      <g
         id="g12"
         clip-path="url(#clipPath16)">
        <g
           id="g18"
           transform="translate(680.7998,208.9736)">
          <path
             d="m 0,0 h -615.416 c -6.521,0 -11.809,5.287 -11.809,11.809 v 277.826 c 0,6.522 5.288,11.808 11.809,11.808 H 0 c 6.522,0 11.809,-5.286 11.809,-11.808 V 11.809 C 11.809,5.287 6.522,0 0,0"
             style="fill:#2c4b73;fill-opacity:1;fill-rule:nonzero;stroke:none"
             id="path20" />
        </g>
        <g
           id="g22"
           transform="translate(680.7998,208.9736)">
          <path
             d="m 0,0 h -615.416 c -6.521,0 -11.809,5.287 -11.809,11.809 v 277.826 c 0,6.522 5.288,11.808 11.809,11.808 H 0 c 6.522,0 11.809,-5.286 11.809,-11.808 V 11.809 C 11.809,5.287 6.522,0 0,0 Z"
             style="fill:none;stroke:#ee711c;stroke-width:4;stroke-linecap:butt;stroke-linejoin:miter;stroke-miterlimit:10;stroke-dasharray:none;stroke-opacity:1"
             id="path24" />
        </g>
        <g
           id="g26"
           transform="translate(519.5459,494.7148)">
          <path
             d="m 0,0 c 0,-81.955 -66.438,-148.394 -148.393,-148.394 -81.956,0 -148.394,66.439 -148.394,148.394 0,81.956 66.438,148.394 148.394,148.394 C -66.438,148.394 0,81.956 0,0"
             style="fill:#eb7913;fill-opacity:1;fill-rule:nonzero;stroke:none"
             id="path28" />
        </g>
        <g
           id="g30"
           transform="translate(515.1816,494.0747)">
          <path
             d="m 0,0 c 0,-79.191 -64.197,-143.388 -143.389,-143.388 -79.191,0 -143.389,64.197 -143.389,143.388 0,79.192 64.198,143.389 143.389,143.389 C -64.197,143.389 0,79.192 0,0"
             style="fill:#ee7118;fill-opacity:1;fill-rule:nonzero;stroke:none"
             id="path32" />
        </g>
        <g
           id="g34"
           transform="translate(79.8872,280.7256)">
          <path
             d="M 0,0 V 35.885 H 8.356 L 23.172,11.482 h -4.409 l 14.508,24.403 h 8.356 L 41.679,0 h -9.33 l -0.103,21.685 h 1.589 L 23.018,3.536 H 18.507 L 7.382,21.685 H 9.331 L 9.331,0 Z"
             style="fill:#ee7118;fill-opacity:1;fill-rule:nonzero;stroke:none"
             id="path36" />
        </g>
        <g
           id="g38"
           transform="translate(145.3525,280.0078)">
          <path
             d="m 0,0 c -5.298,0 -9.424,1.451 -12.38,4.357 -2.957,2.906 -4.435,7.005 -4.435,12.303 V 36.603 H -6.664 V 16.969 c 0,-3.042 0.598,-5.23 1.794,-6.563 1.196,-1.332 2.853,-1.999 4.972,-1.999 2.12,0 3.769,0.667 4.948,1.999 1.179,1.333 1.768,3.521 1.768,6.563 V 36.603 H 16.866 V 16.66 C 16.866,11.362 15.371,7.263 12.38,4.357 9.389,1.451 5.263,0 0,0"
             style="fill:#ee7118;fill-opacity:1;fill-rule:nonzero;stroke:none"
             id="path40" />
        </g>
        <g
           id="g42"
           transform="translate(190.106,319.2256)">
          <path
             d="m 0,0 c -0.855,0 -1.64,0.153 -2.358,0.461 -0.718,0.308 -1.367,0.667 -1.948,1.076 -0.581,0.411 -1.111,0.777 -1.59,1.104 -0.478,0.324 -0.957,0.486 -1.435,0.486 -0.649,0 -1.197,-0.239 -1.64,-0.718 C -9.416,1.931 -9.672,1.264 -9.74,0.41 h -4.717 c 0.069,2.494 0.675,4.477 1.82,5.946 1.145,1.47 2.725,2.205 4.742,2.205 0.854,0 1.641,-0.163 2.358,-0.487 0.718,-0.325 1.376,-0.692 1.974,-1.102 0.598,-0.41 1.136,-0.778 1.615,-1.102 0.478,-0.326 0.94,-0.488 1.384,-0.488 0.684,0 1.247,0.239 1.692,0.719 0.443,0.477 0.683,1.109 0.717,1.896 H 6.562 C 6.527,5.604 5.929,3.673 4.768,2.204 3.605,0.734 2.016,0 0,0 m -20.967,-38.5 v 35.885 h 8.356 L 7.126,-26.505 H 3.179 v 23.89 h 9.946 V -38.5 H 4.768 l -19.789,23.89 h 3.948 V -38.5 Z"
             style="fill:#ee7118;fill-opacity:1;fill-rule:nonzero;stroke:none"
             id="path44" />
        </g>
        <path
           d="m 210.458,316.61 h 10.151 v -35.885 h -10.151 z"
           style="fill:#ee7118;fill-opacity:1;fill-rule:nonzero;stroke:none"
           id="path46" />
        <g
           id="g48"
           transform="translate(226.0425,280.7256)">
          <path
             d="m 0,0 v 6.407 l 21.07,25.07 1.231,-3.64 H 0.411 v 8.048 H 31.323 V 29.478 L 10.202,4.408 8.972,8.048 h 23.12 V 0 Z"
             style="fill:#ee7118;fill-opacity:1;fill-rule:nonzero;stroke:none"
             id="path50" />
        </g>
        <g
           id="g52"
           transform="translate(284.4326,293.4902)">
          <path
             d="M 0,0 -2.307,2.563 H 8.714 c 3.282,0 5.768,0.701 7.46,2.101 1.691,1.401 2.537,3.385 2.537,5.948 0,2.564 -0.846,4.544 -2.537,5.947 -1.692,1.401 -4.178,2.101 -7.46,2.101 H -2.307 L 0,21.224 Z M -5.127,-12.765 V 23.12 H 8.869 c 3.143,0 5.826,-0.495 8.048,-1.486 2.221,-0.991 3.93,-2.427 5.126,-4.306 1.196,-1.881 1.794,-4.119 1.794,-6.716 0,-2.598 -0.598,-4.828 -1.794,-6.69 C 20.847,2.059 19.138,0.623 16.917,-0.384 14.695,-1.393 12.012,-1.897 8.869,-1.897 H -2.307 L 0,0.513 v -13.278 z"
             style="fill:#ffffff;fill-opacity:1;fill-rule:nonzero;stroke:none"
             id="path54" />
        </g>
        <g
           id="g56"
           transform="translate(339.7979,280.7256)">
          <path
             d="M 0,0 -9.125,13.021 H -3.64 L 5.588,0 Z m -18.865,12.765 -2.307,2.512 h 11.022 c 3.281,0 5.767,0.709 7.459,2.127 1.691,1.418 2.538,3.409 2.538,5.973 0,2.563 -0.847,4.544 -2.538,5.946 -1.692,1.402 -4.178,2.102 -7.459,2.102 h -11.022 l 2.307,2.563 z M -23.992,0 v 35.885 h 13.996 c 3.143,0 5.826,-0.495 8.048,-1.487 2.221,-0.991 3.93,-2.426 5.127,-4.305 1.196,-1.881 1.794,-4.119 1.794,-6.716 0,-2.599 -0.598,-4.828 -1.794,-6.69 C 1.982,14.823 0.273,13.396 -1.948,12.406 -4.17,11.414 -6.853,10.919 -9.996,10.919 h -11.176 l 2.307,2.358 V 0 Z"
             style="fill:#ffffff;fill-opacity:1;fill-rule:nonzero;stroke:none"
             id="path58" />
        </g>
        <g
           id="g60"
           transform="translate(369.2749,284.8779)">
          <path
             d="m 0,0 c 1.982,0 3.82,0.341 5.511,1.024 1.693,0.685 3.161,1.65 4.409,2.897 1.247,1.247 2.221,2.709 2.922,4.385 0.7,1.673 1.051,3.501 1.051,5.484 0,1.982 -0.351,3.802 -1.051,5.46 -0.701,1.657 -1.675,3.118 -2.922,4.383 C 8.672,24.896 7.204,25.871 5.511,26.556 3.82,27.238 1.982,27.58 0,27.58 c -2.017,0 -3.87,-0.342 -5.562,-1.024 -1.692,-0.685 -3.17,-1.66 -4.434,-2.923 -1.266,-1.265 -2.248,-2.726 -2.948,-4.383 -0.701,-1.658 -1.051,-3.478 -1.051,-5.46 0,-1.983 0.35,-3.811 1.051,-5.484 0.7,-1.676 1.682,-3.138 2.948,-4.385 C -8.732,2.674 -7.254,1.709 -5.562,1.024 -3.87,0.341 -2.017,0 0,0 m 0,-4.563 c -2.734,0 -5.271,0.462 -7.613,1.384 -2.341,0.923 -4.366,2.212 -6.074,3.87 -1.709,1.658 -3.043,3.597 -3.999,5.82 -0.957,2.22 -1.436,4.647 -1.436,7.279 0,2.631 0.479,5.058 1.436,7.279 0.956,2.222 2.29,4.161 3.999,5.819 1.708,1.658 3.725,2.948 6.049,3.871 2.323,0.923 4.87,1.385 7.638,1.385 2.734,0 5.263,-0.455 7.587,-1.359 2.324,-0.906 4.34,-2.188 6.049,-3.846 1.71,-1.658 3.034,-3.606 3.974,-5.843 0.939,-2.24 1.41,-4.675 1.41,-7.306 0,-2.665 -0.471,-5.109 -1.41,-7.331 C 16.67,4.237 15.346,2.299 13.636,0.641 11.927,-1.017 9.911,-2.299 7.587,-3.204 5.263,-4.11 2.734,-4.563 0,-4.563"
             style="fill:#ffffff;fill-opacity:1;fill-rule:nonzero;stroke:none"
             id="path62" />
        </g>
        <g
           id="g64"
           transform="translate(401.2637,293.4902)">
          <path
             d="M 0,0 -2.306,2.563 H 8.716 c 3.28,0 5.767,0.701 7.459,2.101 1.69,1.401 2.537,3.385 2.537,5.948 0,2.564 -0.847,4.544 -2.537,5.947 -1.692,1.401 -4.179,2.101 -7.459,2.101 H -2.306 L 0,21.224 Z M -5.127,-12.765 V 23.12 H 8.87 c 3.143,0 5.826,-0.495 8.049,-1.486 2.221,-0.991 3.929,-2.427 5.125,-4.306 1.196,-1.881 1.795,-4.119 1.795,-6.716 0,-2.598 -0.599,-4.828 -1.795,-6.69 C 20.848,2.059 19.14,0.623 16.919,-0.384 14.696,-1.393 12.013,-1.897 8.87,-1.897 H -2.306 L 0,0.513 v -13.278 z"
             style="fill:#ffffff;fill-opacity:1;fill-rule:nonzero;stroke:none"
             id="path66" />
        </g>
        <path
           d="m 432.639,316.61 h 5.127 v -35.885 h -5.127 z"
           style="fill:#ffffff;fill-opacity:1;fill-rule:nonzero;stroke:none"
           id="path68" />
        <path
           d="m 453.195,301.128 h 18.456 v -4.356 h -18.456 z m 0.462,-15.942 h 20.918 v -4.46 h -26.043 v 35.884 h 25.322 v -4.46 h -20.197 z"
           style="fill:#ffffff;fill-opacity:1;fill-rule:nonzero;stroke:none"
           id="path70" />
        <g
           id="g72"
           transform="translate(488.0039,285.1855)">
          <path
             d="m 0,0 h 9.689 c 2.973,0 5.544,0.562 7.715,1.691 2.17,1.128 3.854,2.708 5.05,4.743 1.196,2.033 1.795,4.383 1.795,7.048 0,2.7 -0.599,5.058 -1.795,7.076 -1.196,2.015 -2.88,3.588 -5.05,4.715 -2.171,1.128 -4.742,1.692 -7.715,1.692 H 0 Z M -5.126,-4.46 V 31.425 H 9.997 c 3.827,0 7.202,-0.752 10.125,-2.255 2.922,-1.504 5.194,-3.607 6.818,-6.307 1.623,-2.699 2.435,-5.826 2.435,-9.381 C 29.375,9.927 28.563,6.8 26.94,4.101 25.316,1.401 23.044,-0.701 20.122,-2.204 17.199,-3.709 13.824,-4.46 9.997,-4.46 Z"
             style="fill:#ffffff;fill-opacity:1;fill-rule:nonzero;stroke:none"
             id="path74" />
        </g>
        <g
           id="g76"
           transform="translate(519.2754,280.7256)">
          <path
             d="m 0,0 16.251,35.885 h 5.075 L 37.63,0 H 32.246 L 17.738,33.015 h 2.051 L 5.281,0 Z"
             style="fill:#ffffff;fill-opacity:1;fill-rule:nonzero;stroke:none"
             id="path78" />
        </g>
        <g
           id="g80"
           transform="translate(567.3623,285.1855)">
          <path
             d="m 0,0 h 9.688 c 2.974,0 5.545,0.562 7.716,1.691 2.17,1.128 3.853,2.708 5.05,4.743 1.196,2.033 1.795,4.383 1.795,7.048 0,2.7 -0.599,5.058 -1.795,7.076 -1.197,2.015 -2.88,3.588 -5.05,4.715 -2.171,1.128 -4.742,1.692 -7.716,1.692 H 0 Z M -5.126,-4.46 V 31.425 H 9.997 c 3.827,0 7.202,-0.752 10.125,-2.255 2.922,-1.504 5.194,-3.607 6.818,-6.307 1.623,-2.699 2.434,-5.826 2.434,-9.381 C 29.374,9.927 28.563,6.8 26.94,4.101 25.316,1.401 23.044,-0.701 20.122,-2.204 17.199,-3.709 13.824,-4.46 9.997,-4.46 Z"
             style="fill:#ffffff;fill-opacity:1;fill-rule:nonzero;stroke:none"
             id="path82" />
        </g>
        <path
           d="M 609.245,301.128 H 627.7 v -4.356 h -18.455 z m 0.461,-15.942 h 20.917 v -4.46 H 604.58 v 35.884 h 25.324 v -4.46 h -20.198 z"
           style="fill:#ffffff;fill-opacity:1;fill-rule:nonzero;stroke:none"
           id="path84" />
        <g
           id="g86"
           transform="translate(649.3848,280.3145)">
          <path
             d="m 0,0 c -2.733,0 -5.348,0.419 -7.842,1.257 -2.496,0.837 -4.462,1.923 -5.896,3.255 l 1.897,3.999 c 1.366,-1.197 3.11,-2.189 5.23,-2.973 2.118,-0.788 4.322,-1.18 6.611,-1.18 2.085,0 3.776,0.24 5.075,0.717 1.299,0.48 2.256,1.137 2.871,1.975 0.616,0.836 0.924,1.785 0.924,2.846 0,1.23 -0.402,2.22 -1.205,2.973 -0.803,0.751 -1.846,1.358 -3.128,1.819 -1.28,0.462 -2.691,0.863 -4.228,1.205 -1.538,0.341 -3.085,0.744 -4.64,1.205 -1.555,0.461 -2.973,1.05 -4.255,1.768 -1.282,0.717 -2.316,1.684 -3.101,2.897 -0.788,1.213 -1.18,2.776 -1.18,4.69 0,1.846 0.488,3.545 1.462,5.102 0.973,1.554 2.477,2.801 4.51,3.741 2.034,0.94 4.623,1.411 7.767,1.411 2.085,0 4.153,-0.274 6.203,-0.82 2.051,-0.548 3.828,-1.334 5.331,-2.359 l -1.69,-4.101 c -1.539,1.025 -3.161,1.768 -4.871,2.23 -1.709,0.461 -3.367,0.692 -4.973,0.692 -2.017,0 -3.674,-0.256 -4.973,-0.769 -1.298,-0.513 -2.248,-1.197 -2.844,-2.051 -0.599,-0.854 -0.897,-1.811 -0.897,-2.87 0,-1.265 0.401,-2.273 1.203,-3.025 0.803,-0.752 1.846,-1.351 3.128,-1.795 1.282,-0.443 2.692,-0.846 4.229,-1.205 1.539,-0.359 3.084,-0.761 4.64,-1.203 1.554,-0.446 2.974,-1.026 4.254,-1.744 1.283,-0.718 2.316,-1.675 3.103,-2.871 0.786,-1.196 1.179,-2.735 1.179,-4.614 0,-1.811 -0.497,-3.494 -1.488,-5.05 C 11.416,3.597 9.886,2.35 7.819,1.41 5.751,0.47 3.145,0 0,0"
             style="fill:#ffffff;fill-opacity:1;fill-rule:nonzero;stroke:none"
             id="path88" />
        </g>
      </g>
    </g>
    <text
       xml:space="preserve"
       transform="matrix(1,0,0,-1,127.3369,235.3096)"
       style="font-variant:normal;font-weight:100;font-stretch:normal;font-size:26.2181px;font-family:'Montserrat Thin';-inkscape-font-specification:Montserrat-Thin;writing-mode:lr-tb;fill:#ee7118;fill-opacity:1;fill-rule:nonzero;stroke:none"
       id="text92"><tspan
         x="0 29.075872 62.975876 93.624832 128.07542 163.15524 192.23111 212.07822 243.95943 277.85944 316.03299 347.62842 376.07504 396.91843 431.68362 466.76346"
         y="0"
         sodipodi:role="line"
         id="tspan90">SUEÑOS CUMPLIDOS</tspan></text>
    <g
       id="g94">
      <g
         id="g96"
         clip-path="url(#clipPath100)">
        <g
           id="g102"
           transform="translate(278.769,604.7017)">
          <path
             d="M 0,0 92.384,-154.665 183.038,0"
             style="fill:none;stroke:#2c4b73;stroke-width:3;stroke-linecap:butt;stroke-linejoin:miter;stroke-miterlimit:10;stroke-dasharray:none;stroke-opacity:1"
             id="path104" />
        </g>
        <g
           id="g106"
           transform="translate(258.7007,581.8652)">
          <path
             d="M 0,0 V -57.269"
             style="fill:none;stroke:#2c4b73;stroke-width:3;stroke-linecap:butt;stroke-linejoin:miter;stroke-miterlimit:10;stroke-dasharray:none;stroke-opacity:1"
             id="path108" />
        </g>
        <g
           id="g110"
           transform="translate(253.061,524.8779)">
          <path
             d="m 0,0 c 0,-3.114 2.525,-5.64 5.64,-5.64 3.114,0 5.639,2.526 5.639,5.64 0,3.114 -2.525,5.64 -5.639,5.64 C 2.525,5.64 0,3.114 0,0"
             style="fill:#2c4b73;fill-opacity:1;fill-rule:nonzero;stroke:none"
             id="path112" />
        </g>
        <g
           id="g114"
           transform="translate(258.7007,496.0557)">
          <path
             d="M 0,0 V -84.771"
             style="fill:none;stroke:#2c4b73;stroke-width:3;stroke-linecap:butt;stroke-linejoin:miter;stroke-miterlimit:10;stroke-dasharray:none;stroke-opacity:1"
             id="path116" />
        </g>
        <g
           id="g118"
           transform="translate(483.6045,581.8652)">
          <path
             d="M 0,0 V -119.372"
             style="fill:none;stroke:#2c4b73;stroke-width:3;stroke-linecap:butt;stroke-linejoin:miter;stroke-miterlimit:10;stroke-dasharray:none;stroke-opacity:1"
             id="path120" />
        </g>
        <g
           id="g122"
           transform="translate(483.6045,408.1704)">
          <path
             d="M 0,0 V 27.772"
             style="fill:none;stroke:#2c4b73;stroke-width:3;stroke-linecap:butt;stroke-linejoin:miter;stroke-miterlimit:10;stroke-dasharray:none;stroke-opacity:1"
             id="path124" />
        </g>
        <g
           id="g126"
           transform="translate(489.2441,435.6606)">
          <path
             d="m 0,0 c 0,3.114 -2.525,5.64 -5.64,5.64 -3.114,0 -5.639,-2.526 -5.639,-5.64 0,-3.114 2.525,-5.64 5.639,-5.64 C -2.525,-5.64 0,-3.114 0,0"
             style="fill:#2c4b73;fill-opacity:1;fill-rule:nonzero;stroke:none"
             id="path128" />
        </g>
        <g
           id="g130"
           transform="translate(366.4814,353.3281)">
          <path
             d="M 0,0 -53.977,100.342 V 22.577 h -17.906"
             style="fill:none;stroke:#2c4b73;stroke-width:3;stroke-linecap:butt;stroke-linejoin:miter;stroke-miterlimit:10;stroke-dasharray:none;stroke-opacity:1"
             id="path132" />
        </g>
        <g
           id="g134"
           transform="translate(375.5068,353.3281)">
          <path
             d="M 0,0 53.977,100.342 V 22.577 h 17.906"
             style="fill:none;stroke:#2c4b73;stroke-width:3;stroke-linecap:butt;stroke-linejoin:miter;stroke-miterlimit:10;stroke-dasharray:none;stroke-opacity:1"
             id="path136" />
        </g>
        <g
           id="g138"
           transform="translate(440.959,386.8042)">
          <path
             d="M 0,0 H 30.362 V 211.237 L -69.806,43.856 v -62.973 l 69.287,120.843 z"
             style="fill:#2c4b73;fill-opacity:1;fill-rule:nonzero;stroke:none"
             id="path140" />
        </g>
        <g
           id="g142"
           transform="translate(301.3462,386.8042)">
          <path
             d="M 0,0 H -30.362 V 211.237 L 69.807,43.856 V -19.117 L 0.519,101.726 Z"
             style="fill:#2c4b73;fill-opacity:1;fill-rule:nonzero;stroke:none"
             id="path144" />
        </g>
        <g
           id="g146"
           transform="translate(400.8105,582.6821)">
          <path
             d="M 0,0 C 0.03,16.468 -13.144,29.737 -29.591,29.803 -45.73,29.868 -59.189,16.565 -59.211,0.526 -59.235,-16.332 -46.252,-29.545 -29.616,-29.598 -13.312,-29.649 -0.031,-16.376 0,0 m 25.016,-1.661 c 0.483,-7.439 -2.828,-15.511 -6.609,-23.46 -9.048,-19.022 -19.848,-37.021 -31.648,-54.446 -4.87,-7.193 -9.822,-14.326 -14.95,-21.337 -1.387,-1.897 -1.425,-1.921 -2.761,-0.088 -10.203,13.996 -19.913,28.319 -28.939,43.11 -6.751,11.065 -12.743,22.525 -18.445,34.15 -7.997,16.307 -8.177,32.74 0.183,48.818 8.797,16.919 23.028,26.861 41.965,29.223 17.941,2.237 33.5,-3.498 46.056,-16.454 10.135,-10.458 15.18,-23.216 15.148,-39.516"
             style="fill:#2c4b73;fill-opacity:1;fill-rule:nonzero;stroke:none"
             id="path148" />
        </g>
      </g>
    </g>
  </g>
</svg>
